<?xml version="1.0" ?>

<!-- Uploaded to: SVG Repo, www.svgrepo.com, Generator: SVG Repo Mixer Tools -->
<svg width="30" height="30" fill="black" viewBox="0 0 24 24" version="1.1" xml:space="preserve" xmlns="http://www.w3.org/2000/svg" xmlns:xlink="http://www.w3.org/1999/xlink">

<g id="Layer_1"/>

<g id="Layer_2">

<g>

<path d="M7,18c-0.3,0-0.5-0.1-0.7-0.3c-0.4-0.4-0.4-1,0-1.4l1-1c0.4-0.4,1-0.4,1.4,0s0.4,1,0,1.4l-1,1C7.5,17.9,7.3,18,7,18z"/>

</g>

<g>

<path d="M12,18c-0.3,0-0.5-0.1-0.7-0.3c-0.4-0.4-0.4-1,0-1.4l1-1c0.4-0.4,1-0.4,1.4,0s0.4,1,0,1.4l-1,1C12.5,17.9,12.3,18,12,18z"/>

</g>

<g>

<path d="M14,22c-0.3,0-0.5-0.1-0.7-0.3c-0.4-0.4-0.4-1,0-1.4l1-1c0.4-0.4,1-0.4,1.4,0s0.4,1,0,1.4l-1,1C14.5,21.9,14.3,22,14,22z"/>

</g>

<g>

<path d="M9,22c-0.3,0-0.5-0.1-0.7-0.3c-0.4-0.4-0.4-1,0-1.4l1-1c0.4-0.4,1-0.4,1.4,0s0.4,1,0,1.4l-1,1C9.5,21.9,9.3,22,9,22z"/>

</g>

<g>

<path d="M4,22c-0.3,0-0.5-0.1-0.7-0.3c-0.4-0.4-0.4-1,0-1.4l1-1c0.4-0.4,1-0.4,1.4,0s0.4,1,0,1.4l-1,1C4.5,21.9,4.3,22,4,22z"/>

</g>

<path d="M20.9,2.5C20.7,2.2,20.4,2,20,2h-6c-0.5,0-0.9,0.3-1,0.8l-0.7,2.7c0,0-0.1,0-0.1-0.1c0,0,0,0-0.1,0   c-0.2-0.1-0.4-0.2-0.7-0.2c-0.3-0.1-0.6-0.1-1-0.1C8.4,5,6.7,6.5,6.3,8.6H5.4c-1.3,0-2.6,0.8-3.1,2.2C2.1,11.2,2,11.7,2,12.2v0.1   c0,0.3,0,0.6,0.1,0.9c0.3,1.4,1.3,2.4,2.6,2.7C4.9,16,5.1,16,5.4,16c0.6,0,1-0.4,1-1s-0.4-1-1-1c-0.1,0-0.2,0-0.3,0   c-0.5-0.1-0.9-0.6-1.1-1.2C4,12.6,4,12.5,4,12.3v-0.1c0-0.3,0.1-0.5,0.1-0.7c0.2-0.6,0.7-0.9,1.3-0.9h1.8c0.6,0,1-0.4,1-1   c0-1.4,1-2.6,2.3-2.6c0.2,0,0.4,0,0.5,0.1c0.1,0,0.3,0.1,0.4,0.1c0,0,0.1,0,0.1,0c0.1,0,0.1,0.1,0.2,0.1c0.7,0.5,1.2,1.3,1.2,2.3   c0,0.1,0,0.2,0.1,0.3l-0.8,1.6c-0.2,0.4-0.1,0.9,0.2,1.2c0.2,0.2,0.4,0.3,0.7,0.3c0.2,0,0.4-0.1,0.6-0.2l2.9-1.9   c0.1,0.1,0.2,0.2,0.3,0.3c0,0,0,0.1,0.1,0.1c0.2,0.3,0.3,0.6,0.3,0.9v0.1c0,0.2,0,0.3-0.1,0.5c-0.1,0.5-0.5,0.9-0.9,1.1   C15.9,14,15.7,14,15.6,14c-0.6,0-1,0.4-1,1s0.4,1,1,1c0.4,0,0.8-0.1,1.1-0.2c1-0.4,1.8-1.3,2.1-2.5c0.1-0.3,0.1-0.7,0.1-1v-0.1   c0-0.7-0.2-1.4-0.5-1.9c-0.1-0.1-0.1-0.2-0.2-0.3c0-0.1-0.1-0.1-0.2-0.2l1.4-1C20,8.6,20.1,8,19.9,7.6l-0.7-1.5l1.7-2.5   C21,3.2,21.1,2.9,20.9,2.5z M17.2,5.4c-0.2,0.3-0.2,0.7-0.1,1l0.6,1.2l-2.1,1.4l0.3-0.6c0.2-0.5,0-1.1-0.4-1.3l-1.3-0.6L14.8,4h3.4   L17.2,5.4z"/>

</g>

</svg>