<?xml version="1.0" ?>

<!-- Uploaded to: SVG Repo, www.svgrepo.com, Generator: SVG Repo Mixer Tools -->
<svg width="30" height="30" fill="black" viewBox="0 0 24 24" version="1.1" xml:space="preserve" xmlns="http://www.w3.org/2000/svg" xmlns:xlink="http://www.w3.org/1999/xlink">

<g id="Layer_1"/>

<g id="Layer_2">

<g>

<path d="M22,11.7C22,11.7,22,11.7,22,11.7c0-1.2-0.4-2.3-1.2-3.2C19.9,7.5,18.6,7,17.3,7h-0.4c-0.5-2.3-2.5-4-4.9-4S7.6,4.7,7.1,7    H6.7C5.4,7,4.1,7.5,3.2,8.5c-0.9,0.9-1.3,2-1.2,3.2c0.1,1.1,0.5,2.2,1.3,2.9C4.1,15.5,5.2,16,6.4,16h1.2l-0.9,1.6    c-0.5,0.9-0.5,2,0,3S8.3,22,9.4,22h9.3c1.1,0,2-0.5,2.6-1.5s0.6-2,0-3L20,15.3c0.3-0.2,0.5-0.4,0.7-0.6    C21.5,13.9,21.9,12.8,22,11.7z M8.7,14H6.4c-0.6,0-1.2-0.3-1.7-0.7c-0.4-0.4-0.7-1-0.7-1.6c0-0.6,0.2-1.3,0.7-1.8    C5.2,9.3,5.9,9,6.7,9H8c0.6,0,1-0.4,1-1c0-1.7,1.3-3,3-3c1.6,0,2.8,1.2,3,2.7c0,0-0.1,0-0.1,0c0,0-0.1,0-0.1,0    c-0.2-0.1-0.5-0.1-0.7-0.1c-1.1,0-2.1,0.6-2.6,1.6L8.7,14z M19.5,19.5c-0.1,0.1-0.3,0.5-0.9,0.5H9.4c-0.5,0-0.8-0.3-0.9-0.5    s-0.3-0.5,0-1l4.6-8.5c0.3-0.5,0.7-0.5,0.9-0.5s0.6,0,0.9,0.5l2.9,5.3c0,0,0,0,0,0l1.8,3.2C19.8,19,19.6,19.4,19.5,19.5z     M19.2,13.3c-0.1,0.1-0.1,0.1-0.2,0.2l-2.4-4.4c0,0,0-0.1-0.1-0.1h0.7c0.7,0,1.5,0.3,2,0.9c0.5,0.5,0.7,1.1,0.7,1.8    C20,12.2,19.7,12.8,19.2,13.3z"/>

<path d="M14,11c-0.6,0-1,0.4-1,1v3c0,0.6,0.4,1,1,1s1-0.4,1-1v-3C15,11.4,14.6,11,14,11z"/>

<circle cx="14" cy="18" r="1"/>

</g>

</g>

</svg>