<?xml version="1.0" encoding="iso-8859-1"?>
<!-- Uploaded to: SVG Repo, www.svgrepo.com, Generator: SVG Repo Mixer Tools -->
<svg fill="black" height="20" width="20" version="1.1" id="Layer_1" xmlns="http://www.w3.org/2000/svg" xmlns:xlink="http://www.w3.org/1999/xlink" 
	 viewBox="0 0 298.899 298.899" xml:space="preserve">
<g id="XMLID_1500_">
	<g>
		<g>
			<path d="M21.067,139.301l15.336-38.143l13.554-8.399l-13.682,59.382l0.162,0.037c-0.355,1.495-0.456,3.076-0.231,4.689
				l2.824,20.293l23.907-12.884l-0.862-6.191l2.903,0.669l2.581,3.031c5.94-3.201,23.256-12.533,29.196-15.735l-0.369-0.042
				c-9.662-1.099-16.193-8.547-17.487-13.779L68.168,88.865l20.914,40.846c1.669,3.257,4.855,5.463,8.491,5.877l43.375,4.935
				c5.675,0.646,10.867-3.188,11.956-8.744c1.23-6.28-3.151-12.249-9.485-12.969l-37.554-4.273l-18.94-36.99l23.674,26.54
				l4.506-19.56c2.02-8.768-3.45-17.514-12.218-19.533c-24.214-5.489-29.606-7.188-32.562-7.439
				c-2.712-0.23-5.619,0.358-8.115,1.905L21.846,84.471c-1.979,1.226-3.514,3.052-4.382,5.212L0.792,131.15
				c-2.251,5.599,0.463,11.963,6.062,14.214C12.46,147.617,18.819,144.893,21.067,139.301z"/>
			<path d="M44.29,225.318l-5.547,52.959c-0.785,7.497,5.086,14.054,12.674,14.054c6.433-0.001,11.957-4.863,12.643-11.402
				l6.329-60.42c0.207-1.979-0.01-2.774-0.848-8.799L44.29,225.318z"/>
			<circle cx="100.175" cy="30.684" r="24.117"/>
			<path d="M298.85,64.512c0-7.28-7.808-11.935-14.216-8.449l-122.242,66.496c1.063,3.016,1.441,6.257,1.069,9.528
				c-1.331,11.701-11.909,20.199-23.7,18.858l-24.441-2.781L10.822,205.008c-3.095,1.684-5.023,4.926-5.023,8.449
				c0,8.407,0,61.724,0,69.255c0,5.313,4.306,9.619,9.619,9.619c5.312,0,9.619-4.306,9.619-9.619c0-7.121,0-56.302,0-63.537
				L279.612,80.694c0,4.789,0,101.721,0,106.473h-32.958c-1.761,0-3.189,1.427-3.189,3.189v23.102h-52.244
				c-1.761,0-3.189,1.427-3.189,3.189v23.102h-52.244c-1.761,0-3.189,1.427-3.189,3.189v23.102h-27.492
				c2.727-1.791,4.772-4.62,5.481-8.068l12.816-62.301c0.777-3.776-0.06-7.625-3.173-11.281l-23.05,12.422l-11.526,56.032
				c-1.082,5.258,1.255,10.417,5.483,13.196H80.355c-1.761,0-3.189,1.427-3.189,3.189v19.914c0,1.761,1.427,3.189,3.189,3.189
				H295.71c1.761,0,3.189-1.427,3.189-3.189C298.899,178.359,298.85,221.994,298.85,64.512z"/>
		</g>
	</g>
</g>
</svg>